<svg width="20" height="20" viewBox="0 0 20 20" fill="none" xmlns="http://www.w3.org/2000/svg">
<path d="M13.5 8.75C13.0858 8.75 12.75 9.08579 12.75 9.5C12.75 9.91421 13.0858 10.25 13.5 10.25V8.75ZM13.51 10.25C13.9242 10.25 14.26 9.91421 14.26 9.5C14.26 9.08579 13.9242 8.75 13.51 8.75V10.25ZM9.5 8.75C9.08579 8.75 8.75 9.08579 8.75 9.5C8.75 9.91421 9.08579 10.25 9.5 10.25V8.75ZM9.51 10.25C9.92421 10.25 10.26 9.91421 10.26 9.5C10.26 9.08579 9.92421 8.75 9.51 8.75V10.25ZM5.5 8.75C5.08579 8.75 4.75 9.08579 4.75 9.5C4.75 9.91421 5.08579 10.25 5.5 10.25V8.75ZM5.51 10.25C5.92421 10.25 6.26 9.91421 6.26 9.5C6.26 9.08579 5.92421 8.75 5.51 8.75V10.25ZM19 19L18.7629 19.7116C19.0324 19.8014 19.3295 19.7313 19.5304 19.5304C19.7313 19.3295 19.8014 19.0324 19.7116 18.7629L19 19ZM17.1 13.3L16.4834 12.8732C16.349 13.0673 16.3139 13.3133 16.3885 13.5372L17.1 13.3ZM16.2372 17.2885C15.8442 17.1575 15.4195 17.3699 15.2885 17.7629C15.1575 18.1558 15.3699 18.5806 15.7628 18.7115L16.2372 17.2885ZM9.5 1.75C9.91421 1.75 10.25 1.41421 10.25 1C10.25 0.585786 9.91421 0.25 9.5 0.25V1.75ZM13.7464 17.7028C14.0792 17.4563 14.1493 16.9866 13.9028 16.6537C13.6563 16.3208 13.1866 16.2508 12.8537 16.4973L13.7464 17.7028ZM15.4856 2.44743C15.1699 2.17926 14.6966 2.21778 14.4284 2.53347C14.1602 2.84916 14.1988 3.32247 14.5144 3.59063L15.4856 2.44743ZM13.5 10.25H13.51V8.75H13.5V10.25ZM9.5 10.25H9.51V8.75H9.5V10.25ZM5.5 10.25H5.51V8.75H5.5V10.25ZM19.7116 18.7629L17.8116 13.0629L16.3885 13.5372L18.2885 19.2372L19.7116 18.7629ZM15.7628 18.7115L18.7629 19.7116L19.2372 18.2885L16.2372 17.2885L15.7628 18.7115ZM9.5 17.25C5.21979 17.25 1.75 13.7802 1.75 9.5H0.25C0.25 14.6086 4.39137 18.75 9.5 18.75V17.25ZM1.75 9.5C1.75 5.21979 5.21979 1.75 9.5 1.75V0.25C4.39137 0.25 0.25 4.39137 0.25 9.5H1.75ZM13.3 17.1C12.8537 16.4973 12.854 16.4971 12.8543 16.4969C12.8544 16.4968 12.8547 16.4966 12.8548 16.4965C12.8552 16.4962 12.8556 16.4959 12.8559 16.4957C12.8565 16.4952 12.8571 16.4948 12.8576 16.4944C12.8587 16.4937 12.8594 16.4931 12.8599 16.4928C12.8608 16.4922 12.8606 16.4923 12.8592 16.4933C12.8564 16.4952 12.8491 16.5002 12.8372 16.5078C12.8133 16.5232 12.771 16.5492 12.71 16.5826C12.5879 16.6493 12.3907 16.7455 12.1159 16.8441C11.5678 17.0408 10.7033 17.25 9.5 17.25V18.75C10.8814 18.75 11.917 18.5092 12.6226 18.2559C12.9747 18.1296 13.2429 18.0008 13.4295 17.8987C13.5228 17.8477 13.5956 17.8035 13.6483 17.7696C13.6747 17.7527 13.696 17.7383 13.7123 17.727C13.7205 17.7214 13.7274 17.7165 13.7331 17.7125C13.7359 17.7104 13.7384 17.7086 13.7406 17.707C13.7417 17.7062 13.7428 17.7054 13.7437 17.7047C13.7442 17.7044 13.7447 17.704 13.7451 17.7037C13.7453 17.7036 13.7456 17.7033 13.7457 17.7032C13.746 17.703 13.7464 17.7028 13.3 17.1ZM17.25 9.5C17.25 10.6583 17.0418 11.524 16.8428 12.0879C16.7431 12.3704 16.6453 12.5781 16.5764 12.7096C16.5419 12.7754 16.5147 12.822 16.4981 12.8494C16.4897 12.863 16.4841 12.8719 16.4815 12.8759C16.4802 12.8778 16.4797 12.8786 16.48 12.8782C16.4801 12.8779 16.4805 12.8774 16.481 12.8766C16.4813 12.8762 16.4817 12.8757 16.482 12.8751C16.4822 12.8748 16.4825 12.8745 16.4827 12.8742C16.4828 12.874 16.483 12.8738 16.483 12.8737C16.4832 12.8734 16.4834 12.8732 17.1 13.3C17.7167 13.7269 17.7169 13.7267 17.7171 13.7264C17.7172 13.7263 17.7174 13.726 17.7175 13.7258C17.7178 13.7254 17.7181 13.725 17.7184 13.7245C17.719 13.7236 17.7196 13.7227 17.7204 13.7216C17.7218 13.7195 17.7234 13.7171 17.7253 13.7143C17.729 13.7088 17.7335 13.702 17.7388 13.6938C17.7494 13.6775 17.7631 13.656 17.7794 13.6292C17.812 13.5757 17.855 13.5013 17.9049 13.4061C18.0047 13.2157 18.132 12.9422 18.2573 12.5871C18.5082 11.876 18.75 10.8417 18.75 9.5H17.25ZM14.5144 3.59063C16.1893 5.01336 17.25 7.13242 17.25 9.5H18.75C18.75 6.67374 17.4816 4.14298 15.4856 2.44743L14.5144 3.59063Z" fill="white"/>
</svg>
