<svg width="18" height="20" viewBox="0 0 18 20" fill="none" xmlns="http://www.w3.org/2000/svg">
<path d="M1 2.25C0.585787 2.25 0.25 2.58579 0.25 3C0.25 3.41421 0.585787 3.75 1 3.75V2.25ZM4 3.75C4.41421 3.75 4.75 3.41421 4.75 3C4.75 2.58579 4.41421 2.25 4 2.25V3.75ZM17 3.75C17.4142 3.75 17.75 3.41421 17.75 3C17.75 2.58579 17.4142 2.25 17 2.25V3.75ZM7 9.25C6.58579 9.25 6.25 9.58579 6.25 10C6.25 10.4142 6.58579 10.75 7 10.75V9.25ZM13 10H13.75H13ZM1 9.25C0.585787 9.25 0.25 9.58579 0.25 10C0.25 10.4142 0.585787 10.75 1 10.75V9.25ZM4 10.75C4.41421 10.75 4.75 10.4142 4.75 10C4.75 9.58579 4.41421 9.25 4 9.25V10.75ZM8 16.25C7.58579 16.25 7.25 16.5858 7.25 17C7.25 17.4142 7.58579 17.75 8 17.75V16.25ZM17 17.75C17.4142 17.75 17.75 17.4142 17.75 17C17.75 16.5858 17.4142 16.25 17 16.25V17.75ZM3 15V15.75V15ZM5 17H5.75H5ZM3 19V19.75V19ZM1 17H1.75H1ZM15 8V8.75V8ZM17 10H17.75H17ZM15 12V12.75V12ZM9 1V1.75V1ZM9 5V5.75V5ZM7 3H7.75H7ZM1 3.75H4V2.25H1V3.75ZM11 3.75L17 3.75V2.25L11 2.25V3.75ZM7 10.75H13V9.25H7V10.75ZM1 10.75H4V9.25H1V10.75ZM8 17.75H17V16.25H8V17.75ZM3 15.75C3.69036 15.75 4.25 16.3096 4.25 17H5.75C5.75 15.4812 4.51878 14.25 3 14.25V15.75ZM4.25 17C4.25 17.6904 3.69036 18.25 3 18.25V19.75C4.51878 19.75 5.75 18.5188 5.75 17H4.25ZM3 18.25C2.30964 18.25 1.75 17.6904 1.75 17H0.25C0.25 18.5188 1.48122 19.75 3 19.75V18.25ZM1.75 17C1.75 16.3096 2.30964 15.75 3 15.75V14.25C1.48122 14.25 0.25 15.4812 0.25 17H1.75ZM15 8.75C15.6904 8.75 16.25 9.30964 16.25 10H17.75C17.75 8.48122 16.5188 7.25 15 7.25V8.75ZM16.25 10C16.25 10.6904 15.6904 11.25 15 11.25V12.75C16.5188 12.75 17.75 11.5188 17.75 10H16.25ZM15 11.25C14.3096 11.25 13.75 10.6904 13.75 10H12.25C12.25 11.5188 13.4812 12.75 15 12.75V11.25ZM13.75 10C13.75 9.30964 14.3096 8.75 15 8.75V7.25C13.4812 7.25 12.25 8.48122 12.25 10H13.75ZM9 1.75C9.69036 1.75 10.25 2.30964 10.25 3H11.75C11.75 1.48122 10.5188 0.25 9 0.25V1.75ZM10.25 3C10.25 3.69036 9.69036 4.25 9 4.25V5.75C10.5188 5.75 11.75 4.51878 11.75 3H10.25ZM9 4.25C8.30964 4.25 7.75 3.69036 7.75 3H6.25C6.25 4.51878 7.48122 5.75 9 5.75V4.25ZM7.75 3C7.75 2.30964 8.30964 1.75 9 1.75V0.25C7.48122 0.25 6.25 1.48122 6.25 3H7.75Z" fill="white"/>
</svg>
