<svg width="64" height="62" viewBox="0 0 64 62" fill="none" xmlns="http://www.w3.org/2000/svg">
<circle cx="33" cy="31" r="30.75" stroke="white" stroke-width="0.5"/>
<circle cx="31" cy="31" r="30.75" stroke="#6BB8FF" stroke-width="0.5"/>
<path d="M17.336 30.16C16.536 30.16 15.8053 29.9573 15.144 29.552C14.4827 29.1467 13.9813 28.5493 13.64 27.76L15.304 26.768C15.688 27.76 16.3653 28.256 17.336 28.256C17.912 28.256 18.3707 28.1227 18.712 27.856C19.0533 27.5893 19.224 27.1787 19.224 26.624V18.816H21.16V26.624C21.16 27.2 21.064 27.7067 20.872 28.144C20.68 28.5813 20.4133 28.9493 20.072 29.248C19.7307 29.5467 19.3253 29.776 18.856 29.936C18.3867 30.0853 17.88 30.16 17.336 30.16ZM28.6813 30.16C27.8706 30.16 27.1133 30.0107 26.4093 29.712C25.7159 29.4133 25.1079 29.008 24.5853 28.496C24.0733 27.9733 23.6679 27.3653 23.3693 26.672C23.0706 25.968 22.9213 25.2107 22.9213 24.4C22.9213 23.5893 23.0706 22.8373 23.3693 22.144C23.6679 21.44 24.0733 20.832 24.5853 20.32C25.1079 19.7973 25.7159 19.3867 26.4093 19.088C27.1133 18.7893 27.8706 18.64 28.6813 18.64C29.4919 18.64 30.2439 18.7893 30.9373 19.088C31.6413 19.3867 32.2493 19.7973 32.7613 20.32C33.2839 20.832 33.6946 21.44 33.9933 22.144C34.2919 22.8373 34.4413 23.5893 34.4413 24.4C34.4413 25.2107 34.2919 25.968 33.9933 26.672C33.6946 27.3653 33.2839 27.9733 32.7613 28.496C32.2493 29.008 31.6413 29.4133 30.9373 29.712C30.2439 30.0107 29.4919 30.16 28.6813 30.16ZM28.6813 20.544C28.1479 20.544 27.6466 20.6453 27.1773 20.848C26.7186 21.0507 26.3186 21.328 25.9773 21.68C25.6359 22.0213 25.3639 22.4267 25.1613 22.896C24.9693 23.3653 24.8679 23.8667 24.8573 24.4C24.8573 24.944 24.9533 25.4507 25.1453 25.92C25.3373 26.3893 25.6039 26.8 25.9453 27.152C26.2973 27.4933 26.7026 27.7653 27.1613 27.968C27.6306 28.16 28.1373 28.256 28.6813 28.256C29.2253 28.256 29.7319 28.16 30.2013 27.968C30.6706 27.7653 31.0759 27.4933 31.4173 27.152C31.7586 26.8 32.0253 26.3893 32.2173 25.92C32.4199 25.4507 32.5213 24.944 32.5213 24.4C32.5213 23.856 32.4199 23.3493 32.2173 22.88C32.0253 22.4107 31.7586 22.0053 31.4173 21.664C31.0759 21.312 30.6706 21.04 30.2013 20.848C29.7319 20.6453 29.2253 20.544 28.6813 20.544ZM36.3581 18.816H38.2941V29.984H36.3581V18.816ZM47.6741 30L42.7141 22.592V29.984H40.8581V18.816H42.5701L47.5301 26.224V18.816H49.4021V29.968L47.6741 30Z" fill="#6BB8FF"/>
<path d="M20.672 33.2H21.33V43H20.546L14.778 34.404V42.986H14.12V33.2H14.904L20.672 41.81V33.2ZM29.0553 43.168C28.3459 43.168 27.6833 43.0373 27.0673 42.776C26.4513 42.5147 25.9146 42.16 25.4573 41.712C24.9999 41.2547 24.6406 40.718 24.3793 40.102C24.1179 39.4767 23.9873 38.8093 23.9873 38.1C23.9873 37.3813 24.1179 36.714 24.3793 36.098C24.6406 35.482 24.9999 34.95 25.4573 34.502C25.9146 34.0447 26.4513 33.6853 27.0673 33.424C27.6833 33.1627 28.3459 33.032 29.0553 33.032C29.7739 33.032 30.4413 33.1627 31.0573 33.424C31.6733 33.6853 32.2099 34.0447 32.6673 34.502C33.1246 34.95 33.4839 35.482 33.7453 36.098C34.0066 36.714 34.1373 37.3813 34.1373 38.1C34.1373 38.8093 34.0066 39.4767 33.7453 40.102C33.4839 40.718 33.1246 41.2547 32.6673 41.712C32.2099 42.16 31.6733 42.5147 31.0573 42.776C30.4413 43.0373 29.7739 43.168 29.0553 43.168ZM29.0553 33.732C28.4393 33.732 27.8653 33.844 27.3333 34.068C26.8106 34.292 26.3533 34.6 25.9613 34.992C25.5693 35.384 25.2613 35.846 25.0373 36.378C24.8226 36.91 24.7153 37.484 24.7153 38.1C24.7153 38.716 24.8226 39.29 25.0373 39.822C25.2613 40.354 25.5693 40.816 25.9613 41.208C26.3533 41.6 26.8106 41.908 27.3333 42.132C27.8653 42.356 28.4393 42.468 29.0553 42.468C29.6713 42.468 30.2453 42.356 30.7773 42.132C31.3093 41.908 31.7713 41.6 32.1633 41.208C32.5553 40.816 32.8586 40.354 33.0733 39.822C33.2973 39.29 33.4093 38.716 33.4093 38.1C33.4093 37.484 33.2973 36.91 33.0733 36.378C32.8586 35.846 32.5553 35.384 32.1633 34.992C31.7713 34.6 31.3093 34.292 30.7773 34.068C30.2453 33.844 29.6713 33.732 29.0553 33.732ZM46.1029 42.09L48.7629 33.2H49.4769L46.5509 43H45.6689L42.7849 34.096L39.9009 43H39.0189L36.0929 33.2H36.8069L39.4669 42.104L42.3369 33.228H43.2189L46.1029 42.09Z" fill="#6BB8FF"/>
</svg>
