<svg width="13" height="13" viewBox="0 0 13 13" fill="none" xmlns="http://www.w3.org/2000/svg">
<path d="M1 5.33317L0.809625 4.87083C0.623476 4.94748 0.501451 5.12829 0.500013 5.3296C0.498575 5.53091 0.618005 5.71344 0.80304 5.79274L1 5.33317ZM12.3333 0.666504L12.7957 0.856879C12.8725 0.670232 12.8296 0.45568 12.6869 0.312951C12.5442 0.170221 12.3296 0.12731 12.143 0.204165L12.3333 0.666504ZM7.66667 11.9998L7.20709 12.1968C7.28639 12.3818 7.46893 12.5013 7.67024 12.4998C7.87154 12.4984 8.05236 12.3764 8.12901 12.1902L7.66667 11.9998ZM5.66667 7.33317L6.12624 7.13621C6.07566 7.0182 5.98163 6.92417 5.86363 6.8736L5.66667 7.33317ZM1.19037 5.79551L12.5237 1.12884L12.143 0.204165L0.809625 4.87083L1.19037 5.79551ZM11.871 0.476129L7.20433 11.8095L8.12901 12.1902L12.7957 0.856879L11.871 0.476129ZM8.12624 11.8029L6.12624 7.13621L5.20709 7.53013L7.20709 12.1968L8.12624 11.8029ZM5.86363 6.8736L1.19696 4.8736L0.80304 5.79274L5.46971 7.79274L5.86363 6.8736Z" fill="white"/>
</svg>
