<svg width="20" height="20" viewBox="0 0 20 20" fill="none" xmlns="http://www.w3.org/2000/svg">
<path d="M14.2426 2.92891L14.7729 3.45924L14.7729 3.45924L14.2426 2.92891ZM13.8403 3.33123L14.3706 3.86156L13.8403 3.33123ZM17.071 4.34312L17.6014 3.81279V3.81279L17.071 4.34312ZM15.6568 2.92891L15.1265 3.45924L15.1265 3.45924L15.6568 2.92891ZM16.6688 6.1596L17.1991 6.68993L17.1991 6.68993L16.6688 6.1596ZM17.071 5.75734L16.5407 5.22701V5.22701L17.071 5.75734ZM18 8V7.25V8ZM17.4313 8V8.75V8ZM17.071 14.2426L17.6014 13.7123L17.6014 13.7123L17.071 14.2426ZM16.6688 13.8403L16.1384 14.3707V14.3707L16.6688 13.8403ZM15.6568 17.071L15.1265 16.5407V16.5407L15.6568 17.071ZM17.071 15.6568L17.6014 16.1872V16.1872L17.071 15.6568ZM13.8403 16.6688L14.3707 16.1384H14.3707L13.8403 16.6688ZM14.2426 17.071L13.7123 17.6014L13.7123 17.6014L14.2426 17.071ZM5.75732 17.071L6.28765 17.6014H6.28765L5.75732 17.071ZM6.1596 16.6688L6.68993 17.1991L6.68993 17.1991L6.1596 16.6688ZM2.92889 15.6568L3.45922 15.1265V15.1265L2.92889 15.6568ZM4.34311 17.071L3.81278 17.6014H3.81278L4.34311 17.071ZM3.33123 13.8403L3.86156 14.3706L3.86156 14.3706L3.33123 13.8403ZM2.92889 14.2426L3.45922 14.7729L2.92889 14.2426ZM2.56877 8V7.25H2.56877L2.56877 8ZM2 8V8.75H2L2 8ZM2.92891 5.75734L2.39858 6.28767H2.39858L2.92891 5.75734ZM3.33123 6.15966L3.86156 5.62933H3.86156L3.33123 6.15966ZM4.34312 2.92891L4.87345 3.45924V3.45924L4.34312 2.92891ZM2.92891 4.34313L3.45924 4.87346H3.45924L2.92891 4.34313ZM6.15966 3.33123L5.62933 3.86156V3.86156L6.15966 3.33123ZM5.75734 2.92891L6.28767 2.39858V2.39858L5.75734 2.92891ZM7.31776 3.53229L7.60535 4.22497H7.60535L7.31776 3.53229ZM3.53229 7.31776L4.22497 7.60535L3.53229 7.31776ZM3.53228 12.6822L4.22496 12.3946L3.53228 12.6822ZM7.31774 16.4677L7.60533 15.775H7.60533L7.31774 16.4677ZM12.6822 16.4677L12.3947 15.775L12.6822 16.4677ZM16.4677 12.6822L17.1604 12.9698L16.4677 12.6822ZM16.4677 7.31774L15.775 7.60533V7.60533L16.4677 7.31774ZM12.6822 3.53228L12.3946 4.22496L12.6822 3.53228ZM11 0.25H9V1.75H11V0.25ZM12.75 2.56879V2H11.25V2.56879H12.75ZM13.7123 2.39858L13.31 2.8009L14.3706 3.86156L14.7729 3.45924L13.7123 2.39858ZM17.6014 3.81279L16.1871 2.39858L15.1265 3.45924L16.5407 4.87345L17.6014 3.81279ZM17.1991 6.68993L17.6014 6.28766L16.5407 5.22701L16.1384 5.62927L17.1991 6.68993ZM18 7.25L17.4313 7.25V8.75L18 8.75V7.25ZM19.75 11V9H18.25V11H19.75ZM17.4312 12.75H18V11.25H17.4312V12.75ZM17.6014 13.7123L17.1991 13.31L16.1384 14.3707L16.5407 14.773L17.6014 13.7123ZM16.1872 17.6014L17.6014 16.1872L16.5407 15.1265L15.1265 16.5407L16.1872 17.6014ZM13.31 17.1991L13.7123 17.6014L14.7729 16.5407L14.3707 16.1384L13.31 17.1991ZM12.75 18V17.4312H11.25V18H12.75ZM9 19.75H11V18.25H9V19.75ZM7.25 17.4313V18H8.75V17.4313H7.25ZM6.28765 17.6014L6.68993 17.1991L5.62927 16.1384L5.22699 16.5407L6.28765 17.6014ZM2.39856 16.1872L3.81278 17.6014L4.87344 16.5407L3.45922 15.1265L2.39856 16.1872ZM2.8009 13.3099L2.39856 13.7123L3.45922 14.7729L3.86156 14.3706L2.8009 13.3099ZM2 12.75H2.56879V11.25H2V12.75ZM0.25 9V11H1.75V9H0.25ZM2.56877 7.25L2 7.25L2 8.75L2.56877 8.75L2.56877 7.25ZM2.39858 6.28767L2.8009 6.68999L3.86156 5.62933L3.45924 5.22701L2.39858 6.28767ZM3.81279 2.39858L2.39858 3.81279L3.45924 4.87346L4.87345 3.45924L3.81279 2.39858ZM6.68999 2.8009L6.28767 2.39858L5.22701 3.45924L5.62933 3.86156L6.68999 2.8009ZM7.25 2V2.56876H8.75V2H7.25ZM7.60535 4.22497C8.23546 3.96335 8.75 3.34558 8.75 2.56876H7.25C7.25 2.64757 7.19029 2.77315 7.03018 2.83962L7.60535 4.22497ZM5.62933 3.86156C6.17517 4.4074 6.96899 4.48917 7.60535 4.22497L7.03018 2.83962C6.87601 2.90363 6.74939 2.86031 6.68999 2.8009L5.62933 3.86156ZM4.87345 3.45924C4.97108 3.36161 5.12937 3.36161 5.22701 3.45924L6.28767 2.39858C5.60425 1.71516 4.49621 1.71516 3.81279 2.39858L4.87345 3.45924ZM3.45924 5.22701C3.36161 5.12938 3.36161 4.97109 3.45924 4.87346L2.39858 3.81279C1.71516 4.49621 1.71516 5.60425 2.39858 6.28767L3.45924 5.22701ZM4.22497 7.60535C4.48917 6.969 4.4074 6.17517 3.86156 5.62933L2.8009 6.68999C2.86031 6.7494 2.90363 6.87601 2.83962 7.03018L4.22497 7.60535ZM2.56877 8.75C3.34558 8.75 3.96335 8.23546 4.22497 7.60535L2.83962 7.03018C2.77315 7.19029 2.64757 7.25 2.56877 7.25V8.75ZM1.75 9C1.75 8.86193 1.86193 8.75 2 8.75V7.25C1.0335 7.25 0.25 8.0335 0.25 9H1.75ZM2 11.25C1.86193 11.25 1.75 11.1381 1.75 11H0.25C0.25 11.9665 1.0335 12.75 2 12.75V11.25ZM4.22496 12.3946C3.96335 11.7645 3.34559 11.25 2.56879 11.25V12.75C2.64758 12.75 2.77314 12.8097 2.83961 12.9698L4.22496 12.3946ZM3.86156 14.3706C4.40739 13.8248 4.48915 13.031 4.22496 12.3946L2.83961 12.9698C2.90361 13.124 2.8603 13.2506 2.8009 13.31L3.86156 14.3706ZM3.45922 15.1265C3.36159 15.0289 3.36159 14.8706 3.45922 14.7729L2.39856 13.7123C1.71514 14.3957 1.71514 15.5037 2.39856 16.1872L3.45922 15.1265ZM5.22699 16.5407C5.12936 16.6383 4.97107 16.6383 4.87344 16.5407L3.81278 17.6014C4.49619 18.2848 5.60423 18.2848 6.28765 17.6014L5.22699 16.5407ZM7.60533 15.775C6.96896 15.5108 6.17512 15.5926 5.62927 16.1384L6.68993 17.1991C6.74934 17.1397 6.87597 17.0964 7.03016 17.1604L7.60533 15.775ZM8.75 17.4313C8.75 16.6544 8.23545 16.0366 7.60533 15.775L7.03016 17.1604C7.19028 17.2269 7.25 17.3524 7.25 17.4313H8.75ZM9 18.25C8.86193 18.25 8.75 18.1381 8.75 18H7.25C7.25 18.9665 8.0335 19.75 9 19.75V18.25ZM11.25 18C11.25 18.1381 11.1381 18.25 11 18.25V19.75C11.9665 19.75 12.75 18.9665 12.75 18H11.25ZM12.3947 15.775C11.7645 16.0366 11.25 16.6544 11.25 17.4312H12.75C12.75 17.3524 12.8097 17.2269 12.9698 17.1604L12.3947 15.775ZM14.3707 16.1384C13.8248 15.5926 13.031 15.5108 12.3947 15.775L12.9698 17.1604C13.124 17.0964 13.2506 17.1397 13.31 17.1991L14.3707 16.1384ZM15.1265 16.5407C15.0289 16.6383 14.8706 16.6383 14.7729 16.5407L13.7123 17.6014C14.3957 18.2848 15.5037 18.2848 16.1872 17.6014L15.1265 16.5407ZM16.5407 14.773C16.6383 14.8706 16.6383 15.0289 16.5407 15.1265L17.6014 16.1872C18.2848 15.5037 18.2848 14.3957 17.6014 13.7123L16.5407 14.773ZM15.775 12.3947C15.5108 13.031 15.5926 13.8248 16.1384 14.3707L17.1991 13.31C17.1397 13.2506 17.0964 13.124 17.1604 12.9698L15.775 12.3947ZM17.4312 11.25C16.6544 11.25 16.0366 11.7645 15.775 12.3947L17.1604 12.9698C17.2269 12.8097 17.3524 12.75 17.4312 12.75V11.25ZM18.25 11C18.25 11.1381 18.1381 11.25 18 11.25V12.75C18.9665 12.75 19.75 11.9665 19.75 11H18.25ZM18 8.75C18.1381 8.75 18.25 8.86193 18.25 9H19.75C19.75 8.0335 18.9665 7.25 18 7.25V8.75ZM15.775 7.60533C16.0366 8.23545 16.6544 8.75 17.4313 8.75V7.25C17.3524 7.25 17.2269 7.19028 17.1604 7.03016L15.775 7.60533ZM16.1384 5.62927C15.5926 6.17512 15.5108 6.96897 15.775 7.60533L17.1604 7.03016C17.0964 6.87597 17.1397 6.74934 17.1991 6.68993L16.1384 5.62927ZM16.5407 4.87345C16.6383 4.97108 16.6383 5.12937 16.5407 5.22701L17.6014 6.28767C18.2848 5.60425 18.2848 4.49621 17.6014 3.81279L16.5407 4.87345ZM14.7729 3.45924C14.8706 3.36161 15.0289 3.36161 15.1265 3.45924L16.1871 2.39858C15.5037 1.71516 14.3957 1.71516 13.7123 2.39858L14.7729 3.45924ZM12.3946 4.22496C13.031 4.48915 13.8248 4.40739 14.3706 3.86156L13.31 2.8009C13.2506 2.8603 13.124 2.90361 12.9698 2.83961L12.3946 4.22496ZM11.25 2.56879C11.25 3.34559 11.7645 3.96335 12.3946 4.22496L12.9698 2.83961C12.8097 2.77314 12.75 2.64758 12.75 2.56879H11.25ZM9 0.25C8.0335 0.25 7.25 1.0335 7.25 2H8.75C8.75 1.86193 8.86193 1.75 9 1.75V0.25ZM11 1.75C11.1381 1.75 11.25 1.86193 11.25 2H12.75C12.75 1.0335 11.9665 0.25 11 0.25V1.75ZM11.25 10C11.25 10.6904 10.6904 11.25 10 11.25V12.75C11.5188 12.75 12.75 11.5188 12.75 10H11.25ZM10 11.25C9.30964 11.25 8.75 10.6904 8.75 10H7.25C7.25 11.5188 8.48122 12.75 10 12.75V11.25ZM8.75 10C8.75 9.30964 9.30964 8.75 10 8.75V7.25C8.48122 7.25 7.25 8.48122 7.25 10H8.75ZM10 8.75C10.6904 8.75 11.25 9.30964 11.25 10H12.75C12.75 8.48122 11.5188 7.25 10 7.25V8.75Z" fill="white"/>
</svg>
