<svg width="20" height="19" viewBox="0 0 20 19" fill="none" xmlns="http://www.w3.org/2000/svg">
<path d="M10.6828 0.689648C10.5114 0.312562 10.0667 0.145822 9.68965 0.317225C9.31256 0.488628 9.14582 0.933266 9.31723 1.31035L10.6828 0.689648ZM12.5 6.5L11.8172 6.81035C11.9303 7.05922 12.1699 7.22682 12.4425 7.24779L12.5 6.5ZM19 7L19.5575 7.50172C19.7486 7.28931 19.8025 6.98671 19.6963 6.72139C19.5902 6.45606 19.3425 6.27413 19.0575 6.25221L19 7ZM14.5 12L13.9425 11.4983C13.7757 11.6837 13.7119 11.9399 13.7724 12.1819L14.5 12ZM16 18L15.6646 18.6708C15.9266 18.8018 16.2408 18.7683 16.4693 18.585C16.6978 18.4018 16.7986 18.1023 16.7276 17.8181L16 18ZM13.3354 15.8292C12.9649 15.6439 12.5144 15.7941 12.3292 16.1646C12.1439 16.5351 12.2941 16.9856 12.6646 17.1708L13.3354 15.8292ZM10.3354 15.6708C10.7059 15.4856 10.8561 15.0351 10.6708 14.6646C10.4856 14.2941 10.0351 14.1439 9.66459 14.3292L10.3354 15.6708ZM4 18L3.27239 17.8181C3.20136 18.1023 3.30223 18.4018 3.5307 18.585C3.75918 18.7683 4.07343 18.8018 4.33541 18.6708L4 18ZM5.5 12L6.22761 12.1819C6.2881 11.9399 6.22434 11.6837 6.05747 11.4983L5.5 12ZM1 7L0.942478 6.25221C0.657545 6.27413 0.40983 6.45606 0.30367 6.72139C0.19751 6.98671 0.251357 7.28931 0.442529 7.50172L1 7ZM7.5 6.5L7.55752 7.24779C7.83009 7.22682 8.06965 7.05922 8.18278 6.81035L7.5 6.5ZM9.31914 4.31035C9.49054 3.93327 9.3238 3.48863 8.94672 3.31723C8.56963 3.14582 8.12499 3.31256 7.95359 3.68965L9.31914 4.31035ZM9.31723 1.31035L11.8172 6.81035L13.1828 6.18965L10.6828 0.689648L9.31723 1.31035ZM12.4425 7.24779L18.9425 7.74779L19.0575 6.25221L12.5575 5.75221L12.4425 7.24779ZM18.4425 6.49828L13.9425 11.4983L15.0575 12.5017L19.5575 7.50172L18.4425 6.49828ZM13.7724 12.1819L15.2724 18.1819L16.7276 17.8181L15.2276 11.8181L13.7724 12.1819ZM16.3354 17.3292L13.3354 15.8292L12.6646 17.1708L15.6646 18.6708L16.3354 17.3292ZM9.66459 14.3292L3.66459 17.3292L4.33541 18.6708L10.3354 15.6708L9.66459 14.3292ZM4.72761 18.1819L6.22761 12.1819L4.77239 11.8181L3.27239 17.8181L4.72761 18.1819ZM6.05747 11.4983L1.55747 6.49828L0.442529 7.50172L4.94253 12.5017L6.05747 11.4983ZM1.05752 7.74779L7.55752 7.24779L7.44248 5.75221L0.942478 6.25221L1.05752 7.74779ZM8.18278 6.81035L9.31914 4.31035L7.95359 3.68965L6.81722 6.18965L8.18278 6.81035Z" fill="white"/>
</svg>
