<svg width="20" height="16" viewBox="0 0 20 16" fill="none" xmlns="http://www.w3.org/2000/svg">
<path d="M0.25 7C0.25 7.41421 0.585786 7.75 1 7.75C1.41421 7.75 1.75 7.41421 1.75 7H0.25ZM1.75 12C1.75 11.5858 1.41421 11.25 1 11.25C0.585786 11.25 0.25 11.5858 0.25 12H1.75ZM19 3H19.75C19.75 2.75113 19.6266 2.51847 19.4205 2.37895C19.2144 2.23943 18.9525 2.21122 18.7215 2.30364L19 3ZM19 13L18.7215 13.6964C18.9525 13.7888 19.2144 13.7606 19.4205 13.6211C19.6266 13.4815 19.75 13.2489 19.75 13H19ZM14.2785 10.3036C13.894 10.1498 13.4575 10.3369 13.3036 10.7215C13.1498 11.106 13.3369 11.5425 13.7215 11.6964L14.2785 10.3036ZM16.2215 3.30364C15.8369 3.45748 15.6498 3.89396 15.8036 4.27854C15.9575 4.66313 16.394 4.85019 16.7785 4.69636L16.2215 3.30364ZM2 2.25H13V0.75H2V2.25ZM13.25 2.5V13.5H14.75V2.5H13.25ZM13 13.75H2V15.25H13V13.75ZM2 13.75C1.86193 13.75 1.75 13.6381 1.75 13.5H0.25C0.25 14.4665 1.0335 15.25 2 15.25V13.75ZM13.25 13.5C13.25 13.6381 13.1381 13.75 13 13.75V15.25C13.9665 15.25 14.75 14.4665 14.75 13.5H13.25ZM13 2.25C13.1381 2.25 13.25 2.36193 13.25 2.5H14.75C14.75 1.5335 13.9665 0.75 13 0.75V2.25ZM2 0.75C1.0335 0.75 0.25 1.5335 0.25 2.5H1.75C1.75 2.36193 1.86193 2.25 2 2.25V0.75ZM1.75 7V2.5H0.25V7H1.75ZM1.75 13.5V12H0.25V13.5H1.75ZM18.25 3V13H19.75V3H18.25ZM19.2785 12.3036L14.2785 10.3036L13.7215 11.6964L18.7215 13.6964L19.2785 12.3036ZM18.7215 2.30364L16.2215 3.30364L16.7785 4.69636L19.2785 3.69636L18.7215 2.30364Z" fill="white"/>
</svg>
